<svg xmlns="http://www.w3.org/2000/svg" xmlns:xlink="http://www.w3.org/1999/xlink" viewBox="0 0 500 500" width="500" height="500" preserveAspectRatio="xMidYMid meet" style="width: 100%; height: 100%; transform: translate3d(0px, 0px, 0px); content-visibility: visible;"><defs><clipPath id="__lottie_element_883"><rect width="500" height="500" x="0" y="0"/></clipPath><clipPath id="__lottie_element_885"><path d="M0,0 L500,0 L500,500 L0,500z"/></clipPath></defs><g clip-path="url(#__lottie_element_883)"><g clip-path="url(#__lottie_element_885)" transform="matrix(1,0,0,1,0,0)" opacity="1" style="display: block;"><g class="primary design" transform="matrix(20.829999923706055,0,0,20.829999923706055,-4957.5078125,-4957.498046875)" opacity="1" style="display: none;"><g opacity="1" transform="matrix(1,0,0,1,255.25,255)"><path class="primary" fill="rgb(255,255,255)" fill-opacity="1" d=" M0,-4 C-2.2100000381469727,-4 -4,-2.2100000381469727 -4,0 C-4,2.2100000381469727 -2.2100000381469727,4 0,4 C2.2100000381469727,4 4,2.2100000381469727 4,0 C4,-2.2100000381469727 2.2100000381469727,-4 0,-4z M0,2.5 C-1.3799999952316284,2.5 -2.5,1.3799999952316284 -2.5,0 C-2.5,-1.3799999952316284 -1.3799999952316284,-2.5 0,-2.5 C1.3799999952316284,-2.5 2.5,-1.3799999952316284 2.5,0 C2.5,1.3799999952316284 1.3799999952316284,2.5 0,2.5z"/></g><g opacity="1" transform="matrix(1,0,0,1,255.25,244.75)"><path class="primary" fill="rgb(255,255,255)" fill-opacity="1" d=" M-2,3.75 C-2,3.75 2,3.75 2,3.75 C2.9600000381469727,3.75 3.75,2.9600000381469727 3.75,2 C3.75,2 3.75,-2 3.75,-2 C3.75,-2.9600000381469727 2.9600000381469727,-3.75 2,-3.75 C2,-3.75 -2,-3.75 -2,-3.75 C-2.9600000381469727,-3.75 -3.75,-2.9600000381469727 -3.75,-2 C-3.75,-2 -3.75,2 -3.75,2 C-3.75,2.9600000381469727 -2.9600000381469727,3.75 -2,3.75z M-2.25,-2 C-2.25,-2.140000104904175 -2.140000104904175,-2.25 -2,-2.25 C-2,-2.25 2,-2.25 2,-2.25 C2.140000104904175,-2.25 2.25,-2.140000104904175 2.25,-2 C2.25,-2 2.25,2 2.25,2 C2.25,2.140000104904175 2.140000104904175,2.25 2,2.25 C2,2.25 -2,2.25 -2,2.25 C-2.140000104904175,2.25 -2.25,2.140000104904175 -2.25,2 C-2.25,2 -2.25,-2 -2.25,-2z"/></g><g opacity="1" transform="matrix(1,0,0,1,245.25100708007812,244.76800537109375)"><path class="primary" fill="rgb(255,255,255)" fill-opacity="1" d=" M0.6489999890327454,-3.38700008392334 C0.3790000081062317,-3.8469998836517334 -0.38100001215934753,-3.8469998836517334 -0.6510000228881836,-3.38700008392334 C-0.6510000228881836,-3.38700008392334 -4.111000061035156,2.61299991607666 -4.111000061035156,2.61299991607666 C-4.250999927520752,2.8429999351501465 -4.250999927520752,3.121999979019165 -4.111000061035156,3.3519999980926514 C-3.9709999561309814,3.5820000171661377 -3.7309999465942383,3.7320001125335693 -3.4609999656677246,3.7320001125335693 C-3.4609999656677246,3.7320001125335693 3.4690001010894775,3.7320001125335693 3.4690001010894775,3.7320001125335693 C3.739000082015991,3.7320001125335693 3.989000082015991,3.5920000076293945 4.11899995803833,3.3519999980926514 C4.249000072479248,3.111999988555908 4.249000072479248,2.8320000171661377 4.11899995803833,2.6019999980926514 C4.11899995803833,2.6019999980926514 0.6489999890327454,-3.38700008392334 0.6489999890327454,-3.38700008392334z M-2.1710000038146973,2.2320001125335693 C-2.1710000038146973,2.2320001125335693 -0.0010000000474974513,-1.5180000066757202 -0.0010000000474974513,-1.5180000066757202 C-0.0010000000474974513,-1.5180000066757202 2.1689999103546143,2.2320001125335693 2.1689999103546143,2.2320001125335693 C2.1689999103546143,2.2320001125335693 -2.1710000038146973,2.2320001125335693 -2.1710000038146973,2.2320001125335693z"/></g><g opacity="1" transform="matrix(1,0,0,1,245.25999450683594,255.12100219726562)"><path class="primary" fill="rgb(255,255,255)" fill-opacity="1" d=" M3.4000000953674316,-3.4010000228881836 C3.109999895095825,-3.690999984741211 2.630000114440918,-3.690999984741211 2.3399999141693115,-3.4010000228881836 C2.3399999141693115,-3.4010000228881836 0,-1.0609999895095825 0,-1.0609999895095825 C0,-1.0609999895095825 -2.3399999141693115,-3.4010000228881836 -2.3399999141693115,-3.4010000228881836 C-2.630000114440918,-3.690999984741211 -3.109999895095825,-3.690999984741211 -3.4000000953674316,-3.4010000228881836 C-3.690000057220459,-3.1110000610351562 -3.690000057220459,-2.63100004196167 -3.4000000953674316,-2.3410000801086426 C-3.4000000953674316,-2.3410000801086426 -1.059999942779541,-0.0010000000474974513 -1.059999942779541,-0.0010000000474974513 C-1.059999942779541,-0.0010000000474974513 -3.4000000953674316,2.3389999866485596 -3.4000000953674316,2.3389999866485596 C-3.690000057220459,2.628999948501587 -3.690000057220459,3.1089999675750732 -3.4000000953674316,3.3989999294281006 C-3.25,3.5490000247955322 -3.059999942779541,3.61899995803833 -2.869999885559082,3.61899995803833 C-2.680000066757202,3.61899995803833 -2.490000009536743,3.5490000247955322 -2.3399999141693115,3.3989999294281006 C-2.3399999141693115,3.3989999294281006 0,1.059000015258789 0,1.059000015258789 C0,1.059000015258789 2.3399999141693115,3.3989999294281006 2.3399999141693115,3.3989999294281006 C2.490000009536743,3.5490000247955322 2.680000066757202,3.61899995803833 2.869999885559082,3.61899995803833 C3.059999942779541,3.61899995803833 3.25,3.5490000247955322 3.4000000953674316,3.3989999294281006 C3.690000057220459,3.1089999675750732 3.690000057220459,2.628999948501587 3.4000000953674316,2.3389999866485596 C3.4000000953674316,2.3389999866485596 1.059999942779541,-0.0010000000474974513 1.059999942779541,-0.0010000000474974513 C1.059999942779541,-0.0010000000474974513 3.4000000953674316,-2.3410000801086426 3.4000000953674316,-2.3410000801086426 C3.690000057220459,-2.63100004196167 3.690000057220459,-3.1110000610351562 3.4000000953674316,-3.4010000228881836z"/></g></g><g class="primary design" transform="matrix(20.829999923706055,0,0,20.829999923706055,-4957.5078125,-4957.498046875)" opacity="1" style="display: block;"><g opacity="1" transform="matrix(1,0,0,1,255.25,255)"><path class="primary" fill="rgb(255,255,255)" fill-opacity="1" d=" M0,-4 C-2.2100000381469727,-4 -4,-2.2100000381469727 -4,0 C-4,2.2100000381469727 -2.2100000381469727,4 0,4 C2.2100000381469727,4 4,2.2100000381469727 4,0 C4,-2.2100000381469727 2.2100000381469727,-4 0,-4z M0,2.5 C-1.3799999952316284,2.5 -2.5,1.3799999952316284 -2.5,0 C-2.5,-1.3799999952316284 -1.3799999952316284,-2.5 0,-2.5 C1.3799999952316284,-2.5 2.5,-1.3799999952316284 2.5,0 C2.5,1.3799999952316284 1.3799999952316284,2.5 0,2.5z"/></g><g opacity="1" transform="matrix(1,0,0,1,255.25,244.75)"><path class="primary" fill="rgb(255,255,255)" fill-opacity="1" d=" M-2,3.75 C-2,3.75 2,3.75 2,3.75 C2.9600000381469727,3.75 3.75,2.9600000381469727 3.75,2 C3.75,2 3.75,-2 3.75,-2 C3.75,-2.9600000381469727 2.9600000381469727,-3.75 2,-3.75 C2,-3.75 -2,-3.75 -2,-3.75 C-2.9600000381469727,-3.75 -3.75,-2.9600000381469727 -3.75,-2 C-3.75,-2 -3.75,2 -3.75,2 C-3.75,2.9600000381469727 -2.9600000381469727,3.75 -2,3.75z M-2.25,-2 C-2.25,-2.140000104904175 -2.140000104904175,-2.25 -2,-2.25 C-2,-2.25 2,-2.25 2,-2.25 C2.140000104904175,-2.25 2.25,-2.140000104904175 2.25,-2 C2.25,-2 2.25,2 2.25,2 C2.25,2.140000104904175 2.140000104904175,2.25 2,2.25 C2,2.25 -2,2.25 -2,2.25 C-2.140000104904175,2.25 -2.25,2.140000104904175 -2.25,2 C-2.25,2 -2.25,-2 -2.25,-2z"/></g><g opacity="1" transform="matrix(1,0,0,1,245.25100708007812,244.76800537109375)"><path class="primary" fill="rgb(255,255,255)" fill-opacity="1" d=" M0.6489999890327454,-3.38700008392334 C0.3790000081062317,-3.8469998836517334 -0.38100001215934753,-3.8469998836517334 -0.6510000228881836,-3.38700008392334 C-0.6510000228881836,-3.38700008392334 -4.111000061035156,2.61299991607666 -4.111000061035156,2.61299991607666 C-4.250999927520752,2.8429999351501465 -4.250999927520752,3.121999979019165 -4.111000061035156,3.3519999980926514 C-3.9709999561309814,3.5820000171661377 -3.7309999465942383,3.7320001125335693 -3.4609999656677246,3.7320001125335693 C-3.4609999656677246,3.7320001125335693 3.4690001010894775,3.7320001125335693 3.4690001010894775,3.7320001125335693 C3.739000082015991,3.7320001125335693 3.989000082015991,3.5920000076293945 4.11899995803833,3.3519999980926514 C4.249000072479248,3.111999988555908 4.249000072479248,2.8320000171661377 4.11899995803833,2.6019999980926514 C4.11899995803833,2.6019999980926514 0.6489999890327454,-3.38700008392334 0.6489999890327454,-3.38700008392334z M-2.1710000038146973,2.2320001125335693 C-2.1710000038146973,2.2320001125335693 -0.0010000000474974513,-1.5180000066757202 -0.0010000000474974513,-1.5180000066757202 C-0.0010000000474974513,-1.5180000066757202 2.1689999103546143,2.2320001125335693 2.1689999103546143,2.2320001125335693 C2.1689999103546143,2.2320001125335693 -2.1710000038146973,2.2320001125335693 -2.1710000038146973,2.2320001125335693z"/></g><g opacity="1" transform="matrix(1,0,0,1,245.25999450683594,255.12100219726562)"><path class="primary" fill="rgb(255,255,255)" fill-opacity="1" d=" M3.4000000953674316,-3.4010000228881836 C3.109999895095825,-3.690999984741211 2.630000114440918,-3.690999984741211 2.3399999141693115,-3.4010000228881836 C2.3399999141693115,-3.4010000228881836 0,-1.0609999895095825 0,-1.0609999895095825 C0,-1.0609999895095825 -2.3399999141693115,-3.4010000228881836 -2.3399999141693115,-3.4010000228881836 C-2.630000114440918,-3.690999984741211 -3.109999895095825,-3.690999984741211 -3.4000000953674316,-3.4010000228881836 C-3.690000057220459,-3.1110000610351562 -3.690000057220459,-2.63100004196167 -3.4000000953674316,-2.3410000801086426 C-3.4000000953674316,-2.3410000801086426 -1.059999942779541,-0.0010000000474974513 -1.059999942779541,-0.0010000000474974513 C-1.059999942779541,-0.0010000000474974513 -3.4000000953674316,2.3389999866485596 -3.4000000953674316,2.3389999866485596 C-3.690000057220459,2.628999948501587 -3.690000057220459,3.1089999675750732 -3.4000000953674316,3.3989999294281006 C-3.25,3.5490000247955322 -3.059999942779541,3.61899995803833 -2.869999885559082,3.61899995803833 C-2.680000066757202,3.61899995803833 -2.490000009536743,3.5490000247955322 -2.3399999141693115,3.3989999294281006 C-2.3399999141693115,3.3989999294281006 0,1.059000015258789 0,1.059000015258789 C0,1.059000015258789 2.3399999141693115,3.3989999294281006 2.3399999141693115,3.3989999294281006 C2.490000009536743,3.5490000247955322 2.680000066757202,3.61899995803833 2.869999885559082,3.61899995803833 C3.059999942779541,3.61899995803833 3.25,3.5490000247955322 3.4000000953674316,3.3989999294281006 C3.690000057220459,3.1089999675750732 3.690000057220459,2.628999948501587 3.4000000953674316,2.3389999866485596 C3.4000000953674316,2.3389999866485596 1.059999942779541,-0.0010000000474974513 1.059999942779541,-0.0010000000474974513 C1.059999942779541,-0.0010000000474974513 3.4000000953674316,-2.3410000801086426 3.4000000953674316,-2.3410000801086426 C3.690000057220459,-2.63100004196167 3.690000057220459,-3.1110000610351562 3.4000000953674316,-3.4010000228881836z"/></g></g><g class="primary design" transform="matrix(0,-1,1,0,153.87503051757812,140.62196350097656)" opacity="1" style="display: none;"><g opacity="1" transform="matrix(1,0,0,1,0,0)"><path stroke-linecap="round" stroke-linejoin="round" fill-opacity="0" class="primary" stroke="rgb(255,255,255)" stroke-opacity="1" stroke-width="31.3" d=" M61.49799728393555,-3.0000109672546387 C61.49799728393555,-3.0000109672546387 -62.499996185302734,-75 -62.499996185302734,-75 C-62.56699752807617,-75 -62.62099838256836,-74.94499969482422 -62.62099838256836,-74.87799072265625 C-62.62099838256836,-74.87799072265625 -62.62099838256836,69.37499237060547 -62.62099838256836,69.37499237060547 C-62.62099838256836,69.44400024414062 -62.564998626708984,69.5 -62.495994567871094,69.5 C-62.495994567871094,69.5 61.49799728393555,-2.874987840652466 61.49799728393555,-2.874987840652466 C61.49799728393555,-2.874987840652466 61.49800109863281,-2.8749897480010986 61.49800109863281,-2.8749918937683105 C61.49800109863281,-2.8749918937683105 61.49800109863281,-2.999007225036621 61.49800109863281,-2.999007225036621 C61.49800109863281,-2.999009132385254 61.49799728393555,-3.0000109672546387 61.49799728393555,-3.0000109672546387z"/></g></g><g class="primary design" transform="matrix(1,0,0,1,359.3750305175781,140.6220245361328)" opacity="1" style="display: none;"><g opacity="1" transform="matrix(1,0,0,1,0,0)"><path stroke-linecap="round" stroke-linejoin="round" fill-opacity="0" class="primary" stroke="rgb(255,255,255)" stroke-opacity="1" stroke-width="31.3" d=" M41.665992736816406,-62.5 C41.665992736816406,-62.5 -41.665992736816406,-62.5 -41.665992736816406,-62.5 C-53.1719970703125,-62.5 -62.5,-53.170997619628906 -62.5,-41.665992736816406 C-62.5,-41.665992736816406 -62.5,41.665992736816406 -62.5,41.665992736816406 C-62.5,53.1719970703125 -53.1719970703125,62.5 -41.665992736816406,62.5 C-41.665992736816406,62.5 41.665992736816406,62.5 41.665992736816406,62.5 C53.170997619628906,62.5 62.5,53.1719970703125 62.5,41.665992736816406 C62.5,41.665992736816406 62.5,-41.665992736816406 62.5,-41.665992736816406 C62.5,-53.170997619628906 53.170997619628906,-62.5 41.665992736816406,-62.5z"/></g></g><g class="primary design" transform="matrix(-0.5735760927200317,0.819152295589447,-0.819152295589447,-0.5735760927200317,151.0479736328125,339.6259765625)" opacity="1" style="display: none;"><g opacity="1" transform="matrix(1,0,0,1,0,0)"><path stroke-linecap="round" stroke-linejoin="round" fill-opacity="0" class="primary" stroke="rgb(255,255,255)" stroke-opacity="1" stroke-width="31.3" d=" M-0.7710131406784058,72.93499755859375 C-0.7710131406784058,72.93499755859375 28.42299461364746,-93.38899230957031 28.42299461364746,-93.38899230957031 M28.42299461364746,-93.38899230957031 C28.42299461364746,-93.38899230957031 -0.8239865303039551,73.3239974975586 -0.8239865303039551,73.3239974975586 M96.77799224853516,4.372010707855225 C96.77799224853516,4.372010707855225 -69.0260009765625,-24.543983459472656 -69.0260009765625,-24.543983459472656"/></g></g><g class="primary design" transform="matrix(-1,0,0,-1,509.09576416015625,713.5401611328125)" opacity="1" style="display: none;"><g opacity="1" transform="matrix(0,-1,1,0,151.04800415039062,356.7699890136719)"><path stroke-linecap="round" stroke-linejoin="round" fill-opacity="0" class="primary" stroke="rgb(255,255,255)" stroke-opacity="1" stroke-width="31.3" d=" M-52.216007232666016,-47.00600814819336 C13.700947761535645,-113.51995849609375 108.20196533203125,-16.76994514465332 43.313011169433594,47.90900802612305"/></g><g opacity="1" transform="matrix(1,0,0,1,151.04800415039062,356.7699890136719)"><path stroke-linecap="round" stroke-linejoin="round" fill-opacity="0" class="primary" stroke="rgb(255,255,255)" stroke-opacity="1" stroke-width="31.3" d=" M48.20200729370117,-43.20201110839844 C107.22996520996094,26.797937393188477 12.229948997497559,107.79796600341797 -47.5200080871582,52.02000427246094"/></g></g></g></g></svg>