<svg xmlns="http://www.w3.org/2000/svg" xmlns:xlink="http://www.w3.org/1999/xlink" viewBox="0 0 500 500" width="500" height="500" preserveAspectRatio="xMidYMid meet" style="width: 100%; height: 100%; transform: translate3d(0px, 0px, 0px); content-visibility: visible;"><defs><clipPath id="__lottie_element_9090"><rect width="500" height="500" x="0" y="0"/></clipPath><clipPath id="__lottie_element_9092"><path d="M0,0 L500,0 L500,500 L0,500z"/></clipPath></defs><g clip-path="url(#__lottie_element_9090)"><g clip-path="url(#__lottie_element_9092)" transform="matrix(1,0,0,1,0,0)" opacity="1" style="display: block;"><g class="primary design" transform="matrix(1,0,0,1,0,0)" opacity="1" style="display: block;"><g opacity="1" transform="matrix(1,0,0,1,250.0030059814453,250.00100708007812)"><path class="primary" fill="rgb(255,255,255)" fill-opacity="1" d=" M151.04200744628906,187.5279998779297 C151.04200744628906,187.5279998779297 -151.04200744628906,187.5279998779297 -151.04200744628906,187.5279998779297 C-171.15899658203125,187.5279998779297 -187.5260009765625,171.16099548339844 -187.5260009765625,151.04400634765625 C-187.5260009765625,151.04400634765625 -187.5260009765625,-151.0399932861328 -187.5260009765625,-151.0399932861328 C-187.5260009765625,-171.15699768066406 -171.15899658203125,-187.5240020751953 -151.04200744628906,-187.5240020751953 C-151.04200744628906,-187.5240020751953 36.45899963378906,-187.5279998779297 36.45899963378906,-187.5279998779297 C40.60900115966797,-187.5279998779297 44.59000015258789,-185.87899780273438 47.5260009765625,-182.94400024414062 C47.5260009765625,-182.94400024414062 182.93600463867188,-47.534000396728516 182.93600463867188,-47.534000396728516 C184.06100463867188,-46.409000396728516 185.00900268554688,-45.11800003051758 185.7449951171875,-43.707000732421875 C185.7449951171875,-43.707000732421875 185.75,-43.69599914550781 185.75,-43.69599914550781 C186.91600036621094,-41.46099853515625 187.5260009765625,-38.97800064086914 187.5260009765625,-36.457000732421875 C187.5260009765625,-36.457000732421875 187.5260009765625,151.04400634765625 187.5260009765625,151.04400634765625 C187.5260009765625,171.16099548339844 171.15899658203125,187.5279998779297 151.04200744628906,187.5279998779297z M29.976999282836914,-156.2270050048828 C29.976999282836914,-156.2270050048828 -151.04200744628906,-156.2239990234375 -151.04200744628906,-156.2239990234375 C-153.89999389648438,-156.2239990234375 -156.22500610351562,-153.8979949951172 -156.22500610351562,-151.0399932861328 C-156.22500610351562,-151.0399932861328 -156.22500610351562,151.04400634765625 -156.22500610351562,151.04400634765625 C-156.22500610351562,153.90199279785156 -153.89999389648438,156.22799682617188 -151.04200744628906,156.22799682617188 C-151.04200744628906,156.22799682617188 151.04200744628906,156.22799682617188 151.04200744628906,156.22799682617188 C153.89999389648438,156.22799682617188 156.22500610351562,153.90199279785156 156.22500610351562,151.04400634765625 C156.22500610351562,151.04400634765625 156.22500610351562,-29.979999542236328 156.22500610351562,-29.979999542236328 C156.22500610351562,-29.979999542236328 29.976999282836914,-156.2270050048828 29.976999282836914,-156.2270050048828z"/></g><g opacity="1" transform="matrix(1,0,0,1,249.9980010986328,255.21099853515625)"><path class="primary" fill="rgb(255,255,255)" fill-opacity="1" d=" M88.54199981689453,15.649999618530273 C88.54199981689453,15.649999618530273 -88.54199981689453,15.649999618530273 -88.54199981689453,15.649999618530273 C-97.18599700927734,15.649999618530273 -104.19200134277344,8.642999649047852 -104.19200134277344,0 C-104.19200134277344,-8.642999649047852 -97.18599700927734,-15.649999618530273 -88.54199981689453,-15.649999618530273 C-88.54199981689453,-15.649999618530273 88.54199981689453,-15.649999618530273 88.54199981689453,-15.649999618530273 C97.18599700927734,-15.649999618530273 104.19200134277344,-8.642999649047852 104.19200134277344,0 C104.19200134277344,8.642999649047852 97.18599700927734,15.649999618530273 88.54199981689453,15.649999618530273z"/></g><g opacity="1" transform="matrix(1,0,0,1,208.33099365234375,182.2899932861328)"><path class="primary" fill="rgb(255,255,255)" fill-opacity="1" d=" M46.875,15.649999618530273 C46.875,15.649999618530273 -46.875,15.649999618530273 -46.875,15.649999618530273 C-55.51900100708008,15.649999618530273 -62.525001525878906,8.642999649047852 -62.525001525878906,0 C-62.525001525878906,-8.642999649047852 -55.51900100708008,-15.649999618530273 -46.875,-15.649999618530273 C-46.875,-15.649999618530273 46.875,-15.649999618530273 46.875,-15.649999618530273 C55.51900100708008,-15.649999618530273 62.525001525878906,-8.642999649047852 62.525001525878906,0 C62.525001525878906,8.642999649047852 55.51900100708008,15.649999618530273 46.875,15.649999618530273z"/></g><g opacity="1" transform="matrix(1,0,0,1,249.9980010986328,328.1260070800781)"><path class="primary" fill="rgb(255,255,255)" fill-opacity="1" d=" M88.54199981689453,15.649999618530273 C88.54199981689453,15.649999618530273 -88.54199981689453,15.649999618530273 -88.54199981689453,15.649999618530273 C-97.18599700927734,15.649999618530273 -104.19200134277344,8.642999649047852 -104.19200134277344,0 C-104.19200134277344,-8.642999649047852 -97.18599700927734,-15.649999618530273 -88.54199981689453,-15.649999618530273 C-88.54199981689453,-15.649999618530273 88.54199981689453,-15.649999618530273 88.54199981689453,-15.649999618530273 C97.18599700927734,-15.649999618530273 104.19200134277344,-8.642999649047852 104.19200134277344,0 C104.19200134277344,8.642999649047852 97.18599700927734,15.649999618530273 88.54199981689453,15.649999618530273z"/></g></g></g></g></svg>