<svg xmlns="http://www.w3.org/2000/svg" xmlns:xlink="http://www.w3.org/1999/xlink" viewBox="0 0 500 500" width="500" height="500" preserveAspectRatio="xMidYMid meet" style="width: 100%; height: 100%; transform: translate3d(0px, 0px, 0px); content-visibility: visible;"><defs><clipPath id="__lottie_element_5864"><rect width="500" height="500" x="0" y="0"/></clipPath><clipPath id="__lottie_element_5866"><path d="M0,0 L500,0 L500,500 L0,500z"/></clipPath></defs><g clip-path="url(#__lottie_element_5864)"><g clip-path="url(#__lottie_element_5866)" transform="matrix(1,0,0,1,0,0)" opacity="1" style="display: block;"><g class="primary design" transform="matrix(20.829999923706055,0,0,20.829999923706055,250.03799438476562,250.0019989013672)" opacity="1" style="display: block;"><g opacity="1" transform="matrix(1,0,0,1,0,0)"><path class="primary" fill="rgb(255,255,255)" fill-opacity="1" d=" M-3.000999927520752,5.0879998207092285 C-3.000999927520752,5.0879998207092285 -3.002000093460083,7 -3.002000093460083,7 C-3.002000093460083,8.649999618530273 -1.6519999504089355,10 -0.0020000000949949026,10 C1.6480000019073486,10 2.997999906539917,8.649999618530273 2.997999906539917,7 C2.997999906539917,7 2.999000072479248,5.0879998207092285 2.999000072479248,5.0879998207092285 C2.999000072479248,5.0879998207092285 -3.000999927520752,5.0879998207092285 -3.000999927520752,5.0879998207092285z M1.4980000257492065,7 C1.4980000257492065,7.829999923706055 0.828000009059906,8.5 -0.0020000000949949026,8.5 C-0.8320000171661377,8.5 -1.5019999742507935,7.829999923706055 -1.5019999742507935,7 C-1.5019999742507935,7 -1.5010000467300415,5.544000148773193 -1.5010000467300415,5.544000148773193 C-1.5010000467300415,5.544000148773193 1.4989999532699585,5.544000148773193 1.4989999532699585,5.544000148773193 C1.4989999532699585,5.544000148773193 1.4980000257492065,7 1.4980000257492065,7z"/></g></g><g class="primary design" transform="matrix(20.829999923706055,0,0,20.829999923706055,250.03799438476562,250.0019989013672)" opacity="1" style="display: block;"><g opacity="1" transform="matrix(1,0,0,1,0,0)"><path class="primary" fill="rgb(255,255,255)" fill-opacity="1" d=" M6.127999782562256,1.340000033378601 C6.047999858856201,1.159999966621399 5.998000144958496,0.9700000286102295 5.998000144958496,0.7799999713897705 C5.998000144958496,0.7799999713897705 5.998000144958496,-2 5.998000144958496,-2 C5.998000144958496,-5.050000190734863 3.7079999446868896,-7.579999923706055 0.7480000257492065,-7.949999809265137 C0.7480000257492065,-7.949999809265137 0.7480000257492065,-9.25 0.7480000257492065,-9.25 C0.7480000257492065,-9.65999984741211 0.40799999237060547,-10 -0.0020000000949949026,-10 C-0.41200000047683716,-10 -0.7519999742507935,-9.65999984741211 -0.7519999742507935,-9.25 C-0.7519999742507935,-9.25 -0.7519999742507935,-7.949999809265137 -0.7519999742507935,-7.949999809265137 C-3.7119998931884766,-7.579999923706055 -6.001999855041504,-5.050000190734863 -6.001999855041504,-2 C-6.001999855041504,-2 -6.001999855041504,0.7799999713897705 -6.001999855041504,0.7799999713897705 C-6.001999855041504,0.9700000286102295 -6.052000045776367,1.1699999570846558 -6.131999969482422,1.340000033378601 C-6.131999969482422,1.340000033378601 -7.921999931335449,4.920000076293945 -7.921999931335449,4.920000076293945 C-8.041999816894531,5.150000095367432 -8.022000312805176,5.429999828338623 -7.892000198364258,5.650000095367432 C-7.751999855041504,5.869999885559082 -7.51200008392334,6 -7.251999855041504,6 C-7.251999855041504,6 7.248000144958496,6 7.248000144958496,6 C7.507999897003174,6 7.748000144958496,5.869999885559082 7.888000011444092,5.639999866485596 C8.027999877929688,5.420000076293945 8.038000106811523,5.139999866485596 7.918000221252441,4.909999847412109 C7.918000221252441,4.909999847412109 6.127999782562256,1.340000033378601 6.127999782562256,1.340000033378601z M-6.041999816894531,4.5 C-6.041999816894531,4.5 -4.791999816894531,2.009999990463257 -4.791999816894531,2.009999990463257 C-4.6020002365112305,1.6299999952316284 -4.501999855041504,1.2100000381469727 -4.501999855041504,0.7799999713897705 C-4.501999855041504,0.7799999713897705 -4.501999855041504,-2 -4.501999855041504,-2 C-4.501999855041504,-4.480000019073486 -2.4820001125335693,-6.5 -0.0020000000949949026,-6.5 C2.4779999256134033,-6.5 4.498000144958496,-4.480000019073486 4.498000144958496,-2 C4.498000144958496,-2 4.498000144958496,0.7799999713897705 4.498000144958496,0.7799999713897705 C4.498000144958496,1.2000000476837158 4.5980000495910645,1.6299999952316284 4.788000106811523,2.009999990463257 C4.788000106811523,2.009999990463257 6.038000106811523,4.5 6.038000106811523,4.5 C6.038000106811523,4.5 -6.041999816894531,4.5 -6.041999816894531,4.5z"/></g></g></g></g></svg>